# xmcd
#
# Track frame offsets:
#	150
#	16198
#	29581
#	46095
#	63527
#	78892
#	98327
#	116156
#	132742
#	153255
#	173781
#	190163
#	212343
#
# Disc length: 3079 seconds
#
# Revision: 0
# Processed by: cddbd v1.5.1PL0 Copyright (c) Steve Scherf et al.
# Submitted via: dBpowerAMP V4.0
#
DISCID=a10c050d
DTITLE=Missy Higgins - The Sound Of White
DYEAR=1900
DGENRE=
TTITLE0=All For Believing
TTITLE1=Don't Ever
TTITLE2=Scar
TTITLE3=Ten Days
TTITLE4=Nightminds
TTITLE5=Casualty
TTITLE6=Any Day Now
TTITLE7=Katie
TTITLE8=The River
TTITLE9=The Special Two
TTITLE10=This Is How It Goes
TTITLE11=The Sound Of White
TTITLE12=They Weren't There
EXTD=
EXTT0=
EXTT1=
EXTT2=
EXTT3=
EXTT4=
EXTT5=
EXTT6=
EXTT7=
EXTT8=
EXTT9=
EXTT10=
EXTT11=
EXTT12=
PLAYORDER=
